<svg xmlns="http://www.w3.org/2000/svg" width="1760" height="980" viewBox="0 0 1760 980" font-family="Helvetica, Arial, sans-serif">
  <rect width="1760" height="980" fill="#ffffff"></rect>

  
  <rect x="50" y="70" width="520" height="560" rx="20" fill="#f2f4fa" stroke="#b7c0dd" stroke-width="1.5" stroke-dasharray="4 4"></rect>
  <text x="70" y="92" font-size="14" font-weight="700" letter-spacing="0.5" fill="#71717a">ECS EXPRESS MODE (FARGATE)</text>
  <text x="70" y="112" font-size="12" font-weight="500" fill="#a1a1aa">task role: shelterpulse-ecs-task</text>

  
  <rect x="1150" y="70" width="560" height="400" rx="20" fill="#faf6ee" stroke="#ddc9a3" stroke-width="1.5" stroke-dasharray="4 4"></rect>
  <text x="1170" y="92" font-size="14" font-weight="700" letter-spacing="0.5" fill="#71717a">LAMBDA’S PRIVATE SUBNETS</text>
  <text x="1170" y="112" font-size="12" font-weight="500" fill="#a1a1aa">shelterpulse-lambda-egress-a/b</text>

  
  <g>
    <rect x="170" y="150" width="280" height="78" rx="14" fill="#e8ecf4" stroke="#2d3d7a" stroke-width="1.5"></rect>
    <text x="310" y="185" text-anchor="middle" font-size="16" font-weight="700" fill="#18181b">nginx</text>
    <text x="310" y="205" text-anchor="middle" font-size="12" font-weight="500" fill="#52525b">:8080</text>

    <rect x="170" y="270" width="280" height="88" rx="14" fill="#e8ecf4" stroke="#2d3d7a" stroke-width="1.5"></rect>
    <text x="310" y="308" text-anchor="middle" font-size="16" font-weight="700" fill="#18181b">uvicorn</text>
    <text x="310" y="328" text-anchor="middle" font-size="12" font-weight="500" fill="#52525b">FastAPI app</text>

    <rect x="140" y="400" width="340" height="110" rx="14" fill="#e8ecf4" stroke="#2d3d7a" stroke-width="1.5"></rect>
    <text x="310" y="448" text-anchor="middle" font-size="16" font-weight="700" fill="#18181b">job_store.py</text>
    <text x="310" y="468" text-anchor="middle" font-size="12" font-weight="500" fill="#52525b">in-memory, this task only</text>
  </g>

  
  <g>
    <rect x="1180" y="150" width="480" height="100" rx="14" fill="#f4f0e8" stroke="#7a6d2d" stroke-width="1.5"></rect>
    <text x="1420" y="192" text-anchor="middle" font-size="16" font-weight="700" fill="#18181b">Lambda: shelterpulse-worker</text>
    <text x="1420" y="212" text-anchor="middle" font-size="12" font-weight="500" fill="#52525b">VPC + EFS mount</text>

    <rect x="1180" y="290" width="220" height="90" rx="14" fill="#f4f0e8" stroke="#7a6d2d" stroke-width="1.5"></rect>
    <text x="1290" y="340" text-anchor="middle" font-size="16" font-weight="700" fill="#18181b">handler.py</text>

    <rect x="1440" y="290" width="220" height="90" rx="14" fill="#f4f0e8" stroke="#7a6d2d" stroke-width="1.5"></rect>
    <text x="1550" y="340" text-anchor="middle" font-size="16" font-weight="700" fill="#18181b">shelterpulse.store</text>
  </g>

  
  <g>
    <rect x="560" y="630" width="260" height="100" rx="14" fill="#ffffff" stroke="#b45309" stroke-width="1.5"></rect>
    <text x="690" y="672" text-anchor="middle" font-size="16" font-weight="700" fill="#18181b">SQS FIFO</text>
    <text x="690" y="692" text-anchor="middle" font-size="12" font-weight="500" fill="#52525b">shelterpulse-jobs.fifo</text>

    <rect x="560" y="770" width="260" height="90" rx="14" fill="#ffffff" stroke="#b91c1c" stroke-width="1.5"></rect>
    <text x="690" y="807" text-anchor="middle" font-size="16" font-weight="700" fill="#18181b">DLQ</text>
    <text x="690" y="827" text-anchor="middle" font-size="12" font-weight="500" fill="#52525b">shelterpulse-jobs-dlq.fifo</text>
    <text x="690" y="843" text-anchor="middle" font-size="12" font-weight="500" fill="#52525b">after 3 failed receives</text>

    <rect x="1000" y="630" width="280" height="130" rx="14" fill="#fffbeb" stroke="#d97706" stroke-width="2" stroke-dasharray="5 4"></rect>
    <text x="1140" y="682" text-anchor="middle" font-size="16" font-weight="700" fill="#18181b">NAT Gateway</text>
    <text x="1140" y="702" text-anchor="middle" font-size="12" font-weight="500" fill="#52525b">shelterpulse-lambda-nat</text>

    <rect x="1070" y="604" width="220" height="26" rx="13" fill="#fef3c7" stroke="#d97706" stroke-width="1.5"></rect>
    <text x="1180" y="621" text-anchor="middle" font-size="11" font-weight="700" fill="#92400e">TEMPORARY — ~$32–35/mo</text>

    <rect x="1440" y="630" width="240" height="100" rx="14" fill="#ffffff" stroke="#5d2d7a" stroke-width="1.5"></rect>
    <text x="1560" y="672" text-anchor="middle" font-size="16" font-weight="700" fill="#18181b">EFS</text>
    <text x="1560" y="692" text-anchor="middle" font-size="12" font-weight="500" fill="#52525b">shelterpulse.duckdb</text>
  </g>

  <defs>
    <marker id="arrowhead" markerWidth="10" markerHeight="10" refX="8" refY="3" orient="auto">
      <polygon points="0 0, 9 3, 0 6" fill="#71717a"></polygon>
    </marker>
  </defs>

  
  <g stroke="#71717a" stroke-width="1.5" fill="none">
    <polyline points="310,228 310,270" marker-end="url(#arrowhead)"></polyline>
    <polyline points="310,358 310,400" marker-end="url(#arrowhead)"></polyline>
  </g>

  
  <g stroke="#71717a" stroke-width="1.5" fill="none">
    <polyline points="1420,250 1420,290" marker-end="url(#arrowhead)"></polyline>
    <polyline points="1400,335 1440,335" marker-end="url(#arrowhead)"></polyline>
  </g>

  
  <g stroke="#71717a" stroke-width="2" fill="none">
    
    <polyline points="310,358 310,390 690,390 690,630" marker-end="url(#arrowhead)"></polyline>
    
    <polyline points="820,660 900,660 900,335 1180,335" marker-end="url(#arrowhead)"></polyline>
    
    <polyline points="1300,470 1300,600 1140,600 1140,630" marker-end="url(#arrowhead)"></polyline>
    
    <polyline points="1140,760 1140,900 20,900 20,314 170,314" marker-end="url(#arrowhead)"></polyline>
  </g>

  
  <polyline points="690,730 690,770" stroke="#71717a" stroke-width="2" stroke-dasharray="7 6" fill="none" marker-end="url(#arrowhead)"></polyline>
  
  <polyline points="1550,380 1550,630" stroke="#71717a" stroke-width="2" stroke-dasharray="7 6" fill="none" marker-end="url(#arrowhead)"></polyline>

  
  <rect x="700" y="460" width="140" height="38" fill="#ffffff"></rect>
  <text x="705" y="474" font-size="12" font-weight="600" fill="#52525b">sqs:SendMessage</text>
  <text x="705" y="490" font-size="12" font-weight="600" fill="#52525b">via boto3</text>

  <rect x="930" y="465" width="180" height="38" fill="#ffffff"></rect>
  <text x="1020" y="479" text-anchor="middle" font-size="12" font-weight="600" fill="#52525b">event source mapping,</text>
  <text x="1020" y="495" text-anchor="middle" font-size="12" font-weight="600" fill="#52525b">batch_size=1</text>

  <rect x="705" y="738" width="150" height="20" fill="#ffffff"></rect>
  <text x="710" y="753" font-size="12" font-weight="600" fill="#52525b">maxReceiveCount 3</text>

  <rect x="1250" y="530" width="140" height="20" fill="#ffffff"></rect>
  <text x="1255" y="545" font-size="12" font-weight="600" fill="#52525b">0.0.0.0/0 route</text>

  <rect x="20" y="885" width="330" height="38" fill="#ffffff"></rect>
  <text x="25" y="899" font-size="12" font-weight="600" fill="#52525b">POST /api/internal/jobs/{id}/complete,</text>
  <text x="25" y="915" font-size="12" font-weight="600" fill="#52525b">X-Internal-Key auth</text>

  <rect x="1568" y="490" width="90" height="20" fill="#ffffff"></rect>
  <text x="1573" y="505" font-size="12" font-weight="600" fill="#52525b">store write</text>

  
  <g font-size="12.5" font-weight="600" fill="#3f3f46">
    <rect x="60" y="940" width="14" height="14" rx="4" fill="#e8ecf4" stroke="#2d3d7a" stroke-width="1.5"></rect>
    <text x="82" y="951">ECS Express Mode</text>

    <rect x="230" y="940" width="14" height="14" rx="4" fill="#f4f0e8" stroke="#7a6d2d" stroke-width="1.5"></rect>
    <text x="252" y="951">Lambda</text>

    <rect x="340" y="940" width="14" height="14" rx="4" fill="#fffbeb" stroke="#d97706" stroke-width="2" stroke-dasharray="3 3"></rect>
    <text x="362" y="951">Temporary infra</text>

    <line x1="500" y1="947" x2="514" y2="947" stroke="#71717a" stroke-width="2" stroke-dasharray="3 3"></line>
    <text x="522" y="951">Async / conditional path</text>
  </g>
</svg>